<svg id="visual" viewBox="0 0 1920 1080" width="1920" height="1080" xmlns="http://www.w3.org/2000/svg" xmlns:xlink="http://www.w3.org/1999/xlink" version="1.1"><path d="M0 206L29.2 224C58.3 242 116.7 278 174.8 294.2C233 310.3 291 306.7 349.2 288.7C407.3 270.7 465.7 238.3 523.8 258.2C582 278 640 350 698.2 359C756.3 368 814.7 314 872.8 290.7C931 267.3 989 274.7 1047.2 267.5C1105.3 260.3 1163.7 238.7 1221.8 217C1280 195.3 1338 173.7 1396.2 188C1454.3 202.3 1512.7 252.7 1570.8 277.8C1629 303 1687 303 1745.2 330C1803.3 357 1861.7 411 1890.8 438L1920 465L1920 0L1890.8 0C1861.7 0 1803.3 0 1745.2 0C1687 0 1629 0 1570.8 0C1512.7 0 1454.3 0 1396.2 0C1338 0 1280 0 1221.8 0C1163.7 0 1105.3 0 1047.2 0C989 0 931 0 872.8 0C814.7 0 756.3 0 698.2 0C640 0 582 0 523.8 0C465.7 0 407.3 0 349.2 0C291 0 233 0 174.8 0C116.7 0 58.3 0 29.2 0L0 0Z" fill="#6100ba"></path><path d="M0 314L29.2 324.8C58.3 335.7 116.7 357.3 174.8 371.8C233 386.3 291 393.7 349.2 391.8C407.3 390 465.7 379 523.8 413.2C582 447.3 640 526.7 698.2 519.5C756.3 512.3 814.7 418.7 872.8 380.8C931 343 989 361 1047.2 362.8C1105.3 364.7 1163.7 350.3 1221.8 330.5C1280 310.7 1338 285.3 1396.2 294.3C1454.3 303.3 1512.7 346.7 1570.8 375.5C1629 404.3 1687 418.7 1745.2 460C1803.3 501.3 1861.7 569.7 1890.8 603.8L1920 638L1920 463L1890.8 436C1861.7 409 1803.3 355 1745.2 328C1687 301 1629 301 1570.8 275.8C1512.7 250.7 1454.3 200.3 1396.2 186C1338 171.7 1280 193.3 1221.8 215C1163.7 236.7 1105.3 258.3 1047.2 265.5C989 272.7 931 265.3 872.8 288.7C814.7 312 756.3 366 698.2 357C640 348 582 276 523.8 256.2C465.7 236.3 407.3 268.7 349.2 286.7C291 304.7 233 308.3 174.8 292.2C116.7 276 58.3 240 29.2 222L0 204Z" fill="#7200dc"></path><path d="M0 865L29.2 832.7C58.3 800.3 116.7 735.7 174.8 719.5C233 703.3 291 735.7 349.2 751.8C407.3 768 465.7 768 523.8 769.8C582 771.7 640 775.3 698.2 759.2C756.3 743 814.7 707 872.8 707C931 707 989 743 1047.2 757.3C1105.3 771.7 1163.7 764.3 1221.8 746.3C1280 728.3 1338 699.7 1396.2 699.7C1454.3 699.7 1512.7 728.3 1570.8 728.3C1629 728.3 1687 699.7 1745.2 708.7C1803.3 717.7 1861.7 764.3 1890.8 787.7L1920 811L1920 636L1890.8 601.8C1861.7 567.7 1803.3 499.3 1745.2 458C1687 416.7 1629 402.3 1570.8 373.5C1512.7 344.7 1454.3 301.3 1396.2 292.3C1338 283.3 1280 308.7 1221.8 328.5C1163.7 348.3 1105.3 362.7 1047.2 360.8C989 359 931 341 872.8 378.8C814.7 416.7 756.3 510.3 698.2 517.5C640 524.7 582 445.3 523.8 411.2C465.7 377 407.3 388 349.2 389.8C291 391.7 233 384.3 174.8 369.8C116.7 355.3 58.3 333.7 29.2 322.8L0 312Z" fill="#8300ff"></path><path d="M0 962L29.2 951.2C58.3 940.3 116.7 918.7 174.8 906.2C233 893.7 291 890.3 349.2 894C407.3 897.7 465.7 908.3 523.8 915.5C582 922.7 640 926.3 698.2 922.7C756.3 919 814.7 908 872.8 917C931 926 989 955 1047.2 953.3C1105.3 951.7 1163.7 919.3 1221.8 897.7C1280 876 1338 865 1396.2 872.2C1454.3 879.3 1512.7 904.7 1570.8 911.8C1629 919 1687 908 1745.2 902.5C1803.3 897 1861.7 897 1890.8 897L1920 897L1920 809L1890.8 785.7C1861.7 762.3 1803.3 715.7 1745.2 706.7C1687 697.7 1629 726.3 1570.8 726.3C1512.7 726.3 1454.3 697.7 1396.2 697.7C1338 697.7 1280 726.3 1221.8 744.3C1163.7 762.3 1105.3 769.7 1047.2 755.3C989 741 931 705 872.8 705C814.7 705 756.3 741 698.2 757.2C640 773.3 582 769.7 523.8 767.8C465.7 766 407.3 766 349.2 749.8C291 733.7 233 701.3 174.8 717.5C116.7 733.7 58.3 798.3 29.2 830.7L0 863Z" fill="#9c44ff"></path><path d="M0 1081L29.2 1081C58.3 1081 116.7 1081 174.8 1081C233 1081 291 1081 349.2 1081C407.3 1081 465.7 1081 523.8 1081C582 1081 640 1081 698.2 1081C756.3 1081 814.7 1081 872.8 1081C931 1081 989 1081 1047.2 1081C1105.3 1081 1163.7 1081 1221.8 1081C1280 1081 1338 1081 1396.2 1081C1454.3 1081 1512.7 1081 1570.8 1081C1629 1081 1687 1081 1745.2 1081C1803.3 1081 1861.7 1081 1890.8 1081L1920 1081L1920 895L1890.8 895C1861.7 895 1803.3 895 1745.2 900.5C1687 906 1629 917 1570.8 909.8C1512.7 902.7 1454.3 877.3 1396.2 870.2C1338 863 1280 874 1221.8 895.7C1163.7 917.3 1105.3 949.7 1047.2 951.3C989 953 931 924 872.8 915C814.7 906 756.3 917 698.2 920.7C640 924.3 582 920.7 523.8 913.5C465.7 906.3 407.3 895.7 349.2 892C291 888.3 233 891.7 174.8 904.2C116.7 916.7 58.3 938.3 29.2 949.2L0 960Z" fill="#b16aff"></path></svg>